<?xml version="1.0" encoding="UTF-8" ?>
<svg version="1.1" width="32" height="32" xmlns="http://www.w3.org/2000/svg" shape-rendering="crispEdges">
<rect x="12" y="2" width="1" height="1" fill="#FFFFFF" />
<rect x="13" y="2" width="1" height="1" fill="#FFFFFF" />
<rect x="14" y="2" width="1" height="1" fill="#FFFFFF" />
<rect x="15" y="2" width="1" height="1" fill="#FFFFFF" />
<rect x="16" y="2" width="1" height="1" fill="#FFFFFF" />
<rect x="17" y="2" width="1" height="1" fill="#FFFFFF" />
<rect x="18" y="2" width="1" height="1" fill="#FFFFFF" />
<rect x="19" y="2" width="1" height="1" fill="#FFFFFF" />
<rect x="9" y="3" width="1" height="1" fill="#FFFFFF" />
<rect x="10" y="3" width="1" height="1" fill="#FFFFFF" />
<rect x="11" y="3" width="1" height="1" fill="#FFFFFF" />
<rect x="12" y="3" width="1" height="1" fill="#FFFFFF" />
<rect x="13" y="3" width="1" height="1" fill="#FFFFFF" />
<rect x="14" y="3" width="1" height="1" fill="#FFFFFF" />
<rect x="15" y="3" width="1" height="1" fill="#FFFFFF" />
<rect x="16" y="3" width="1" height="1" fill="#FFFFFF" />
<rect x="17" y="3" width="1" height="1" fill="#FFFFFF" />
<rect x="18" y="3" width="1" height="1" fill="#FFFFFF" />
<rect x="19" y="3" width="1" height="1" fill="#FFFFFF" />
<rect x="20" y="3" width="1" height="1" fill="#FFFFFF" />
<rect x="21" y="3" width="1" height="1" fill="#FFFFFF" />
<rect x="22" y="3" width="1" height="1" fill="#FFFFFF" />
<rect x="7" y="4" width="1" height="1" fill="#FFFFFF" />
<rect x="8" y="4" width="1" height="1" fill="#FFFFFF" />
<rect x="9" y="4" width="1" height="1" fill="#FFFFFF" />
<rect x="10" y="4" width="1" height="1" fill="#FFFFFF" />
<rect x="11" y="4" width="1" height="1" fill="#FFFFFF" />
<rect x="12" y="4" width="1" height="1" fill="#FFFFFF" />
<rect x="13" y="4" width="1" height="1" fill="#FFFFFF" />
<rect x="14" y="4" width="1" height="1" fill="#FFFFFF" />
<rect x="15" y="4" width="1" height="1" fill="#FFFFFF" />
<rect x="16" y="4" width="1" height="1" fill="#FFFFFF" />
<rect x="17" y="4" width="1" height="1" fill="#FFFFFF" />
<rect x="18" y="4" width="1" height="1" fill="#FFFFFF" />
<rect x="19" y="4" width="1" height="1" fill="#FFFFFF" />
<rect x="20" y="4" width="1" height="1" fill="#FFFFFF" />
<rect x="21" y="4" width="1" height="1" fill="#FFFFFF" />
<rect x="22" y="4" width="1" height="1" fill="#FFFFFF" />
<rect x="23" y="4" width="1" height="1" fill="#FFFFFF" />
<rect x="24" y="4" width="1" height="1" fill="#FFFFFF" />
<rect x="6" y="5" width="1" height="1" fill="#FFFFFF" />
<rect x="7" y="5" width="1" height="1" fill="#FFFFFF" />
<rect x="8" y="5" width="1" height="1" fill="#FFFFFF" />
<rect x="9" y="5" width="1" height="1" fill="#FFFFFF" />
<rect x="10" y="5" width="1" height="1" fill="#FFFFFF" />
<rect x="11" y="5" width="1" height="1" fill="#FFFFFF" />
<rect x="12" y="5" width="1" height="1" fill="#FFFFFF" />
<rect x="13" y="5" width="1" height="1" fill="#FFFFFF" />
<rect x="14" y="5" width="1" height="1" fill="#FFFFFF" />
<rect x="15" y="5" width="1" height="1" fill="#FFFFFF" />
<rect x="16" y="5" width="1" height="1" fill="#FFFFFF" />
<rect x="17" y="5" width="1" height="1" fill="#FFFFFF" />
<rect x="18" y="5" width="1" height="1" fill="#FFFFFF" />
<rect x="19" y="5" width="1" height="1" fill="#FFFFFF" />
<rect x="20" y="5" width="1" height="1" fill="#FFFFFF" />
<rect x="21" y="5" width="1" height="1" fill="#FFFFFF" />
<rect x="22" y="5" width="1" height="1" fill="#FFFFFF" />
<rect x="23" y="5" width="1" height="1" fill="#FFFFFF" />
<rect x="24" y="5" width="1" height="1" fill="#FFFFFF" />
<rect x="25" y="5" width="1" height="1" fill="#FFFFFF" />
<rect x="5" y="6" width="1" height="1" fill="#FFFFFF" />
<rect x="6" y="6" width="1" height="1" fill="#FFFFFF" />
<rect x="7" y="6" width="1" height="1" fill="#FFFFFF" />
<rect x="8" y="6" width="1" height="1" fill="#FFFFFF" />
<rect x="9" y="6" width="1" height="1" fill="#FFFFFF" />
<rect x="10" y="6" width="1" height="1" fill="#FFFFFF" />
<rect x="11" y="6" width="1" height="1" fill="#FFFFFF" />
<rect x="12" y="6" width="1" height="1" fill="#FFFFFF" />
<rect x="13" y="6" width="1" height="1" fill="#FFFFFF" />
<rect x="14" y="6" width="1" height="1" fill="#FFFFFF" />
<rect x="15" y="6" width="1" height="1" fill="#FFFFFF" />
<rect x="16" y="6" width="1" height="1" fill="#FFFFFF" />
<rect x="17" y="6" width="1" height="1" fill="#FFFFFF" />
<rect x="18" y="6" width="1" height="1" fill="#FFFFFF" />
<rect x="19" y="6" width="1" height="1" fill="#FFFFFF" />
<rect x="20" y="6" width="1" height="1" fill="#FFFFFF" />
<rect x="21" y="6" width="1" height="1" fill="#FFFFFF" />
<rect x="22" y="6" width="1" height="1" fill="#FFFFFF" />
<rect x="23" y="6" width="1" height="1" fill="#FFFFFF" />
<rect x="24" y="6" width="1" height="1" fill="#FFFFFF" />
<rect x="25" y="6" width="1" height="1" fill="#FFFFFF" />
<rect x="26" y="6" width="1" height="1" fill="#FFFFFF" />
<rect x="5" y="7" width="1" height="1" fill="#FFFFFF" />
<rect x="6" y="7" width="1" height="1" fill="#FFFFFF" />
<rect x="7" y="7" width="1" height="1" fill="#FFFFFF" />
<rect x="8" y="7" width="1" height="1" fill="#FFFFFF" />
<rect x="9" y="7" width="1" height="1" fill="#FFFFFF" />
<rect x="10" y="7" width="1" height="1" fill="#FFFFFF" />
<rect x="11" y="7" width="1" height="1" fill="#FFFFFF" />
<rect x="12" y="7" width="1" height="1" fill="#FFFFFF" />
<rect x="13" y="7" width="1" height="1" fill="#FFFFFF" />
<rect x="14" y="7" width="1" height="1" fill="#FFFFFF" />
<rect x="15" y="7" width="1" height="1" fill="#FFFFFF" />
<rect x="16" y="7" width="1" height="1" fill="#FFFFFF" />
<rect x="17" y="7" width="1" height="1" fill="#FFFFFF" />
<rect x="18" y="7" width="1" height="1" fill="#FFFFFF" />
<rect x="19" y="7" width="1" height="1" fill="#FFFFFF" />
<rect x="20" y="7" width="1" height="1" fill="#FFFFFF" />
<rect x="21" y="7" width="1" height="1" fill="#FFFFFF" />
<rect x="22" y="7" width="1" height="1" fill="#FFFFFF" />
<rect x="23" y="7" width="1" height="1" fill="#FFFFFF" />
<rect x="24" y="7" width="1" height="1" fill="#FFFFFF" />
<rect x="25" y="7" width="1" height="1" fill="#FFFFFF" />
<rect x="26" y="7" width="1" height="1" fill="#FFFFFF" />
<rect x="4" y="8" width="1" height="1" fill="#FFFFFF" />
<rect x="5" y="8" width="1" height="1" fill="#FFFFFF" />
<rect x="6" y="8" width="1" height="1" fill="#FFFFFF" />
<rect x="7" y="8" width="1" height="1" fill="#FFFFFF" />
<rect x="8" y="8" width="1" height="1" fill="#FFFFFF" />
<rect x="9" y="8" width="1" height="1" fill="#FFFFFF" />
<rect x="13" y="8" width="1" height="1" fill="#FFFFFF" />
<rect x="14" y="8" width="1" height="1" fill="#FFFFFF" />
<rect x="15" y="8" width="1" height="1" fill="#FFFFFF" />
<rect x="16" y="8" width="1" height="1" fill="#FFFFFF" />
<rect x="17" y="8" width="1" height="1" fill="#FFFFFF" />
<rect x="18" y="8" width="1" height="1" fill="#FFFFFF" />
<rect x="19" y="8" width="1" height="1" fill="#FFFFFF" />
<rect x="23" y="8" width="1" height="1" fill="#FFFFFF" />
<rect x="24" y="8" width="1" height="1" fill="#FFFFFF" />
<rect x="25" y="8" width="1" height="1" fill="#FFFFFF" />
<rect x="26" y="8" width="1" height="1" fill="#FFFFFF" />
<rect x="27" y="8" width="1" height="1" fill="#FFFFFF" />
<rect x="4" y="9" width="1" height="1" fill="#FFFFFF" />
<rect x="5" y="9" width="1" height="1" fill="#FFFFFF" />
<rect x="6" y="9" width="1" height="1" fill="#FFFFFF" />
<rect x="7" y="9" width="1" height="1" fill="#FFFFFF" />
<rect x="8" y="9" width="1" height="1" fill="#FFFFFF" />
<rect x="24" y="9" width="1" height="1" fill="#FFFFFF" />
<rect x="25" y="9" width="1" height="1" fill="#FFFFFF" />
<rect x="26" y="9" width="1" height="1" fill="#FFFFFF" />
<rect x="27" y="9" width="1" height="1" fill="#FFFFFF" />
<rect x="3" y="10" width="1" height="1" fill="#FFFFFF" />
<rect x="4" y="10" width="1" height="1" fill="#FFFFFF" />
<rect x="5" y="10" width="1" height="1" fill="#FFFFFF" />
<rect x="6" y="10" width="1" height="1" fill="#FFFFFF" />
<rect x="7" y="10" width="1" height="1" fill="#FFFFFF" />
<rect x="8" y="10" width="1" height="1" fill="#FFFFFF" />
<rect x="24" y="10" width="1" height="1" fill="#FFFFFF" />
<rect x="25" y="10" width="1" height="1" fill="#FFFFFF" />
<rect x="26" y="10" width="1" height="1" fill="#FFFFFF" />
<rect x="27" y="10" width="1" height="1" fill="#FFFFFF" />
<rect x="28" y="10" width="1" height="1" fill="#FFFFFF" />
<rect x="3" y="11" width="1" height="1" fill="#FFFFFF" />
<rect x="4" y="11" width="1" height="1" fill="#FFFFFF" />
<rect x="5" y="11" width="1" height="1" fill="#FFFFFF" />
<rect x="6" y="11" width="1" height="1" fill="#FFFFFF" />
<rect x="7" y="11" width="1" height="1" fill="#FFFFFF" />
<rect x="8" y="11" width="1" height="1" fill="#FFFFFF" />
<rect x="9" y="11" width="1" height="1" fill="#FFFFFF" />
<rect x="23" y="11" width="1" height="1" fill="#FFFFFF" />
<rect x="24" y="11" width="1" height="1" fill="#FFFFFF" />
<rect x="25" y="11" width="1" height="1" fill="#FFFFFF" />
<rect x="26" y="11" width="1" height="1" fill="#FFFFFF" />
<rect x="27" y="11" width="1" height="1" fill="#FFFFFF" />
<rect x="28" y="11" width="1" height="1" fill="#FFFFFF" />
<rect x="3" y="12" width="1" height="1" fill="#FFFFFF" />
<rect x="4" y="12" width="1" height="1" fill="#FFFFFF" />
<rect x="5" y="12" width="1" height="1" fill="#FFFFFF" />
<rect x="6" y="12" width="1" height="1" fill="#FFFFFF" />
<rect x="7" y="12" width="1" height="1" fill="#FFFFFF" />
<rect x="8" y="12" width="1" height="1" fill="#FFFFFF" />
<rect x="24" y="12" width="1" height="1" fill="#FFFFFF" />
<rect x="25" y="12" width="1" height="1" fill="#FFFFFF" />
<rect x="26" y="12" width="1" height="1" fill="#FFFFFF" />
<rect x="27" y="12" width="1" height="1" fill="#FFFFFF" />
<rect x="28" y="12" width="1" height="1" fill="#FFFFFF" />
<rect x="2" y="13" width="1" height="1" fill="#FFFFFF" />
<rect x="3" y="13" width="1" height="1" fill="#FFFFFF" />
<rect x="4" y="13" width="1" height="1" fill="#FFFFFF" />
<rect x="5" y="13" width="1" height="1" fill="#FFFFFF" />
<rect x="6" y="13" width="1" height="1" fill="#FFFFFF" />
<rect x="7" y="13" width="1" height="1" fill="#FFFFFF" />
<rect x="25" y="13" width="1" height="1" fill="#FFFFFF" />
<rect x="26" y="13" width="1" height="1" fill="#FFFFFF" />
<rect x="27" y="13" width="1" height="1" fill="#FFFFFF" />
<rect x="28" y="13" width="1" height="1" fill="#FFFFFF" />
<rect x="29" y="13" width="1" height="1" fill="#FFFFFF" />
<rect x="2" y="14" width="1" height="1" fill="#FFFFFF" />
<rect x="3" y="14" width="1" height="1" fill="#FFFFFF" />
<rect x="4" y="14" width="1" height="1" fill="#FFFFFF" />
<rect x="5" y="14" width="1" height="1" fill="#FFFFFF" />
<rect x="6" y="14" width="1" height="1" fill="#FFFFFF" />
<rect x="7" y="14" width="1" height="1" fill="#FFFFFF" />
<rect x="25" y="14" width="1" height="1" fill="#FFFFFF" />
<rect x="26" y="14" width="1" height="1" fill="#FFFFFF" />
<rect x="27" y="14" width="1" height="1" fill="#FFFFFF" />
<rect x="28" y="14" width="1" height="1" fill="#FFFFFF" />
<rect x="29" y="14" width="1" height="1" fill="#FFFFFF" />
<rect x="2" y="15" width="1" height="1" fill="#FFFFFF" />
<rect x="3" y="15" width="1" height="1" fill="#FFFFFF" />
<rect x="4" y="15" width="1" height="1" fill="#FFFFFF" />
<rect x="5" y="15" width="1" height="1" fill="#FFFFFF" />
<rect x="6" y="15" width="1" height="1" fill="#FFFFFF" />
<rect x="7" y="15" width="1" height="1" fill="#FFFFFF" />
<rect x="25" y="15" width="1" height="1" fill="#FFFFFF" />
<rect x="26" y="15" width="1" height="1" fill="#FFFFFF" />
<rect x="27" y="15" width="1" height="1" fill="#FFFFFF" />
<rect x="28" y="15" width="1" height="1" fill="#FFFFFF" />
<rect x="29" y="15" width="1" height="1" fill="#FFFFFF" />
<rect x="2" y="16" width="1" height="1" fill="#FFFFFF" />
<rect x="3" y="16" width="1" height="1" fill="#FFFFFF" />
<rect x="4" y="16" width="1" height="1" fill="#FFFFFF" />
<rect x="5" y="16" width="1" height="1" fill="#FFFFFF" />
<rect x="6" y="16" width="1" height="1" fill="#FFFFFF" />
<rect x="7" y="16" width="1" height="1" fill="#FFFFFF" />
<rect x="25" y="16" width="1" height="1" fill="#FFFFFF" />
<rect x="26" y="16" width="1" height="1" fill="#FFFFFF" />
<rect x="27" y="16" width="1" height="1" fill="#FFFFFF" />
<rect x="28" y="16" width="1" height="1" fill="#FFFFFF" />
<rect x="29" y="16" width="1" height="1" fill="#FFFFFF" />
<rect x="2" y="17" width="1" height="1" fill="#FFFFFF" />
<rect x="3" y="17" width="1" height="1" fill="#FFFFFF" />
<rect x="4" y="17" width="1" height="1" fill="#FFFFFF" />
<rect x="5" y="17" width="1" height="1" fill="#FFFFFF" />
<rect x="6" y="17" width="1" height="1" fill="#FFFFFF" />
<rect x="7" y="17" width="1" height="1" fill="#FFFFFF" />
<rect x="8" y="17" width="1" height="1" fill="#FFFFFF" />
<rect x="24" y="17" width="1" height="1" fill="#FFFFFF" />
<rect x="25" y="17" width="1" height="1" fill="#FFFFFF" />
<rect x="26" y="17" width="1" height="1" fill="#FFFFFF" />
<rect x="27" y="17" width="1" height="1" fill="#FFFFFF" />
<rect x="28" y="17" width="1" height="1" fill="#FFFFFF" />
<rect x="29" y="17" width="1" height="1" fill="#FFFFFF" />
<rect x="3" y="18" width="1" height="1" fill="#FFFFFF" />
<rect x="4" y="18" width="1" height="1" fill="#FFFFFF" />
<rect x="5" y="18" width="1" height="1" fill="#FFFFFF" />
<rect x="6" y="18" width="1" height="1" fill="#FFFFFF" />
<rect x="7" y="18" width="1" height="1" fill="#FFFFFF" />
<rect x="8" y="18" width="1" height="1" fill="#FFFFFF" />
<rect x="24" y="18" width="1" height="1" fill="#FFFFFF" />
<rect x="25" y="18" width="1" height="1" fill="#FFFFFF" />
<rect x="26" y="18" width="1" height="1" fill="#FFFFFF" />
<rect x="27" y="18" width="1" height="1" fill="#FFFFFF" />
<rect x="28" y="18" width="1" height="1" fill="#FFFFFF" />
<rect x="3" y="19" width="1" height="1" fill="#FFFFFF" />
<rect x="4" y="19" width="1" height="1" fill="#FFFFFF" />
<rect x="5" y="19" width="1" height="1" fill="#FFFFFF" />
<rect x="6" y="19" width="1" height="1" fill="#FFFFFF" />
<rect x="7" y="19" width="1" height="1" fill="#FFFFFF" />
<rect x="8" y="19" width="1" height="1" fill="#FFFFFF" />
<rect x="9" y="19" width="1" height="1" fill="#FFFFFF" />
<rect x="23" y="19" width="1" height="1" fill="#FFFFFF" />
<rect x="24" y="19" width="1" height="1" fill="#FFFFFF" />
<rect x="25" y="19" width="1" height="1" fill="#FFFFFF" />
<rect x="26" y="19" width="1" height="1" fill="#FFFFFF" />
<rect x="27" y="19" width="1" height="1" fill="#FFFFFF" />
<rect x="28" y="19" width="1" height="1" fill="#FFFFFF" />
<rect x="3" y="20" width="1" height="1" fill="#FFFFFF" />
<rect x="4" y="20" width="1" height="1" fill="#FFFFFF" />
<rect x="5" y="20" width="1" height="1" fill="#FFFFFF" />
<rect x="7" y="20" width="1" height="1" fill="#FFFFFF" />
<rect x="8" y="20" width="1" height="1" fill="#FFFFFF" />
<rect x="9" y="20" width="1" height="1" fill="#FFFFFF" />
<rect x="10" y="20" width="1" height="1" fill="#FFFFFF" />
<rect x="22" y="20" width="1" height="1" fill="#FFFFFF" />
<rect x="23" y="20" width="1" height="1" fill="#FFFFFF" />
<rect x="24" y="20" width="1" height="1" fill="#FFFFFF" />
<rect x="25" y="20" width="1" height="1" fill="#FFFFFF" />
<rect x="26" y="20" width="1" height="1" fill="#FFFFFF" />
<rect x="27" y="20" width="1" height="1" fill="#FFFFFF" />
<rect x="28" y="20" width="1" height="1" fill="#FFFFFF" />
<rect x="4" y="21" width="1" height="1" fill="#FFFFFF" />
<rect x="5" y="21" width="1" height="1" fill="#FFFFFF" />
<rect x="6" y="21" width="1" height="1" fill="#FFFFFF" />
<rect x="8" y="21" width="1" height="1" fill="#FFFFFF" />
<rect x="9" y="21" width="1" height="1" fill="#FFFFFF" />
<rect x="10" y="21" width="1" height="1" fill="#FFFFFF" />
<rect x="11" y="21" width="1" height="1" fill="#FFFFFF" />
<rect x="12" y="21" width="1" height="1" fill="#FFFFFF" />
<rect x="13" y="21" width="1" height="1" fill="#FFFFFF" />
<rect x="19" y="21" width="1" height="1" fill="#FFFFFF" />
<rect x="20" y="21" width="1" height="1" fill="#FFFFFF" />
<rect x="21" y="21" width="1" height="1" fill="#FFFFFF" />
<rect x="22" y="21" width="1" height="1" fill="#FFFFFF" />
<rect x="23" y="21" width="1" height="1" fill="#FFFFFF" />
<rect x="24" y="21" width="1" height="1" fill="#FFFFFF" />
<rect x="25" y="21" width="1" height="1" fill="#FFFFFF" />
<rect x="26" y="21" width="1" height="1" fill="#FFFFFF" />
<rect x="27" y="21" width="1" height="1" fill="#FFFFFF" />
<rect x="4" y="22" width="1" height="1" fill="#FFFFFF" />
<rect x="5" y="22" width="1" height="1" fill="#FFFFFF" />
<rect x="6" y="22" width="1" height="1" fill="#FFFFFF" />
<rect x="8" y="22" width="1" height="1" fill="#FFFFFF" />
<rect x="9" y="22" width="1" height="1" fill="#FFFFFF" />
<rect x="10" y="22" width="1" height="1" fill="#FFFFFF" />
<rect x="11" y="22" width="1" height="1" fill="#FFFFFF" />
<rect x="12" y="22" width="1" height="1" fill="#FFFFFF" />
<rect x="20" y="22" width="1" height="1" fill="#FFFFFF" />
<rect x="21" y="22" width="1" height="1" fill="#FFFFFF" />
<rect x="22" y="22" width="1" height="1" fill="#FFFFFF" />
<rect x="23" y="22" width="1" height="1" fill="#FFFFFF" />
<rect x="24" y="22" width="1" height="1" fill="#FFFFFF" />
<rect x="25" y="22" width="1" height="1" fill="#FFFFFF" />
<rect x="26" y="22" width="1" height="1" fill="#FFFFFF" />
<rect x="27" y="22" width="1" height="1" fill="#FFFFFF" />
<rect x="5" y="23" width="1" height="1" fill="#FFFFFF" />
<rect x="6" y="23" width="1" height="1" fill="#FFFFFF" />
<rect x="7" y="23" width="1" height="1" fill="#FFFFFF" />
<rect x="10" y="23" width="1" height="1" fill="#FFFFFF" />
<rect x="11" y="23" width="1" height="1" fill="#FFFFFF" />
<rect x="12" y="23" width="1" height="1" fill="#FFFFFF" />
<rect x="20" y="23" width="1" height="1" fill="#FFFFFF" />
<rect x="21" y="23" width="1" height="1" fill="#FFFFFF" />
<rect x="22" y="23" width="1" height="1" fill="#FFFFFF" />
<rect x="23" y="23" width="1" height="1" fill="#FFFFFF" />
<rect x="24" y="23" width="1" height="1" fill="#FFFFFF" />
<rect x="25" y="23" width="1" height="1" fill="#FFFFFF" />
<rect x="26" y="23" width="1" height="1" fill="#FFFFFF" />
<rect x="5" y="24" width="1" height="1" fill="#FFFFFF" />
<rect x="6" y="24" width="1" height="1" fill="#FFFFFF" />
<rect x="7" y="24" width="1" height="1" fill="#FFFFFF" />
<rect x="8" y="24" width="1" height="1" fill="#FFFFFF" />
<rect x="9" y="24" width="1" height="1" fill="#FFFFFF" />
<rect x="20" y="24" width="1" height="1" fill="#FFFFFF" />
<rect x="21" y="24" width="1" height="1" fill="#FFFFFF" />
<rect x="22" y="24" width="1" height="1" fill="#FFFFFF" />
<rect x="23" y="24" width="1" height="1" fill="#FFFFFF" />
<rect x="24" y="24" width="1" height="1" fill="#FFFFFF" />
<rect x="25" y="24" width="1" height="1" fill="#FFFFFF" />
<rect x="26" y="24" width="1" height="1" fill="#FFFFFF" />
<rect x="6" y="25" width="1" height="1" fill="#FFFFFF" />
<rect x="7" y="25" width="1" height="1" fill="#FFFFFF" />
<rect x="8" y="25" width="1" height="1" fill="#FFFFFF" />
<rect x="9" y="25" width="1" height="1" fill="#FFFFFF" />
<rect x="10" y="25" width="1" height="1" fill="#FFFFFF" />
<rect x="11" y="25" width="1" height="1" fill="#FFFFFF" />
<rect x="12" y="25" width="1" height="1" fill="#FFFFFF" />
<rect x="20" y="25" width="1" height="1" fill="#FFFFFF" />
<rect x="21" y="25" width="1" height="1" fill="#FFFFFF" />
<rect x="22" y="25" width="1" height="1" fill="#FFFFFF" />
<rect x="23" y="25" width="1" height="1" fill="#FFFFFF" />
<rect x="24" y="25" width="1" height="1" fill="#FFFFFF" />
<rect x="25" y="25" width="1" height="1" fill="#FFFFFF" />
<rect x="7" y="26" width="1" height="1" fill="#FFFFFF" />
<rect x="8" y="26" width="1" height="1" fill="#FFFFFF" />
<rect x="9" y="26" width="1" height="1" fill="#FFFFFF" />
<rect x="10" y="26" width="1" height="1" fill="#FFFFFF" />
<rect x="11" y="26" width="1" height="1" fill="#FFFFFF" />
<rect x="12" y="26" width="1" height="1" fill="#FFFFFF" />
<rect x="20" y="26" width="1" height="1" fill="#FFFFFF" />
<rect x="21" y="26" width="1" height="1" fill="#FFFFFF" />
<rect x="22" y="26" width="1" height="1" fill="#FFFFFF" />
<rect x="23" y="26" width="1" height="1" fill="#FFFFFF" />
<rect x="24" y="26" width="1" height="1" fill="#FFFFFF" />
<rect x="9" y="27" width="1" height="1" fill="#FFFFFF" />
<rect x="10" y="27" width="1" height="1" fill="#FFFFFF" />
<rect x="11" y="27" width="1" height="1" fill="#FFFFFF" />
<rect x="12" y="27" width="1" height="1" fill="#FFFFFF" />
<rect x="20" y="27" width="1" height="1" fill="#FFFFFF" />
<rect x="21" y="27" width="1" height="1" fill="#FFFFFF" />
<rect x="22" y="27" width="1" height="1" fill="#FFFFFF" />
<rect x="23" y="27" width="1" height="1" fill="#FFFFFF" />
<rect x="11" y="28" width="1" height="1" fill="#FFFFFF" />
<rect x="12" y="28" width="1" height="1" fill="#FFFFFF" />
<rect x="20" y="28" width="1" height="1" fill="#FFFFFF" />
<rect x="21" y="28" width="1" height="1" fill="#FFFFFF" />
</svg>